:FULLY-SPECIFIED
:DEGREES
1351
root 7.12312 16.7017 -3.01976 4167.65 -93.3668 -4153.67
lowerback 1.10086 1.1677 2.40547
upperback 2.5365 1.51718 0.323508
thorax 2.03902 0.788159 -1.00424
lowerneck -18.4622 2.38126 -1.99286
upperneck 34.0457 2.6786 1.95883
head 14.8361 0.880145 1.56526
rclavicle 1.43125e-014 1.36664e-014
rhumerus -26.7986 -10.4663 -80.4324
rradius 24.2534
rwrist 27.609
rhand -21.9366 -12.9576
rfingers 7.12502
rthumb 4.46996 -42.8904
lclavicle 1.43125e-014 1.36664e-014
lhumerus -30.3731 -4.08 86.0797
lradius 40.7974
lwrist 7.41097
lhand -25.5168 3.21467
lfingers 7.12502
lthumb 1.01245 33.192
rfemur -31.047 2.45821 25.0859
rtibia 37.0434
rfoot -11.4362 -4.33241
rtoes -5.46131
lfemur -33.1455 7.52649 -16.8194
ltibia 66.9131
lfoot 0.884505 -4.9738
ltoes -18.738
1352
root 7.14083 16.7205 -3.02268 4169.27 -93.2785 -4155.27
lowerback 1.05452 1.29016 2.51436
upperback 2.54222 1.6812 0.198178
thorax 2.08415 0.874331 -1.19078
lowerneck -18.5139 2.4182 -1.87943
upperneck 34.0995 2.70954 1.92075
head 14.8752 0.901873 1.53743
rclavicle 6.36111e-015 2.15681e-014
rhumerus -26.2596 -9.23657 -81.0723
rradius 25.5145
rwrist 25.7055
rhand -22.4448 -13.0001
rfingers 7.12502
rthumb 3.97922 -42.9427
lclavicle 6.36111e-015 2.15681e-014
lhumerus -30.7789 -4.03954 86.1286
lradius 39.8477
lwrist 7.2228
lhand -24.9426 3.07967
lfingers 7.12502
lthumb 1.56703 33.0537
rfemur -29.9752 2.57237 25.2489
rtibia 36.6812
rfoot -11.8407 -4.42338
rtoes -5.81239
lfemur -34.6921 7.60035 -17.1194
ltibia 66.4196
lfoot 0.174749 -5.27075
ltoes -18.3209
1353
root 7.15927 16.7312 -3.02219 4175.91 -93.4423 -4161.9
lowerback 1.04545 1.38567 3.01047
upperback 2.50694 1.80736 0.200707
thorax 2.07486 0.946435 -1.4644
lowerneck -18.512 2.46947 -1.75613
upperneck 34.1522 2.78621 1.79859
head 14.9027 0.931699 1.47988
rclavicle 8.74653e-015 -8.94531e-016
rhumerus -25.7866 -8.28433 -81.4483
rradius 26.5823
rwrist 25.1395
rhand -22.9614 -13.3339
rfingers 7.12502
rthumb 3.4804 -43.2852
lclavicle 8.74653e-015 -8.94531e-016
lhumerus -31.2251 -4.00337 86.2304
lradius 38.9281
lwrist 7.07004
lhand -24.3916 3.04196
lfingers 7.12502
lthumb 2.09915 33.0114
rfemur -28.9033 2.5863 25.842
rtibia 36.3193
rfoot -12.2493 -4.52575
rtoes -6.0124
lfemur -36.2318 7.57399 -17.0147
ltibia 65.7414
lfoot -0.46533 -5.54311
ltoes -17.6245
1354
root 7.17533 16.7418 -3.02022 4177.58 -93.4935 -4163.5
lowerback 1.02251 1.47326 3.21955
upperback 2.41454 1.92792 0.107991
thorax 2.0093 1.01053 -1.6759
lowerneck -18.4813 2.49371 -1.68987
upperneck 34.2553 2.80668 1.76079
head 14.9456 0.940077 1.45742
rclavicle -8.74653e-015 -1.07344e-014
rhumerus -25.4134 -7.15117 -81.8613
rradius 27.7919
rwrist 23.9561
rhand -23.5024 -13.4996
rfingers 7.12502
rthumb 2.95792 -43.4588
lclavicle -8.74653e-015 -1.07344e-014
lhumerus -31.8113 -3.90488 86.3043
lradius 38.1692
lwrist 6.92661
lhand -23.8366 3.19889
lfingers 7.12502
lthumb 2.63517 33.1624
rfemur -27.9003 2.5486 26.067
rtibia 35.9868
rfoot -12.6693 -4.51131
rtoes -5.75013
lfemur -37.7186 7.43407 -17.2915
ltibia 64.7875
lfoot -1.17709 -5.74423
ltoes -16.9104
1355
root 7.19293 16.7456 -3.0182 4181.6 -93.5987 -4167.43
lowerback 0.996137 1.57777 3.52503
upperback 2.32427 2.06885 0.0868418
thorax 1.95142 1.08527 -1.86746
lowerneck -18.4784 2.51726 -1.66181
upperneck 34.312 2.84473 1.72421
head 14.9719 0.953206 1.4451
rclavicle -1.27222e-014 3.57812e-015
rhumerus -24.9953 -6.09713 -82.1551
rradius 28.9926
rwrist 22.7067
rhand -23.8653 -13.5364
rfingers 7.12502
rthumb 2.60748 -43.5002
lclavicle -1.27222e-014 3.57812e-015
lhumerus -32.2834 -3.7422 86.3879
lradius 37.3371
lwrist 6.65394
lhand -23.2849 3.3473
lfingers 7.12502
lthumb 3.16797 33.3035
rfemur -26.9389 2.53519 26.4468
rtibia 35.6242
rfoot -13.1066 -4.49221
rtoes -6.45233
lfemur -39.1686 7.30509 -17.4127
ltibia 63.6086
lfoot -1.80459 -5.91187
ltoes -17.2846
1356
root 7.21127 16.7473 -3.01551 4184.61 -93.6362 -4170.3
lowerback 0.924982 1.69543 3.74547
upperback 2.24441 2.2263 0.025347
thorax 1.93019 1.16771 -2.05103
lowerneck -18.4948 2.52764 -1.58809
upperneck 34.3889 2.85774 1.65657
head 15.0148 0.95666 1.40817
rclavicle 1.74931e-014 5.1684e-015
rhumerus -24.4635 -5.21404 -82.3765
rradius 30.0111
rwrist 21.7545
rhand -24.1751 -13.5939
rfingers 7.12502
rthumb 2.30825 -43.5612
lclavicle 1.74931e-014 5.1684e-015
lhumerus -32.7257 -3.54319 86.4248
lradius 36.5926
lwrist 6.69811
lhand -22.7334 3.52828
lfingers 7.12502
lthumb 3.70059 33.4759
rfemur -26.0167 2.41147 26.7391
rtibia 35.2143
rfoot -13.28 -4.48325
rtoes -7.6613
lfemur -40.5538 7.17587 -17.6644
ltibia 62.1777
lfoot -2.53255 -5.92338
ltoes -18.8765
1357
root 7.22892 16.7479 -3.01135 4187.3 -93.6969 -4172.86
lowerback 0.85164 1.77571 3.90657
upperback 2.16647 2.33263 0.0194768
thorax 1.90517 1.22263 -2.1447
lowerneck -18.4758 2.56327 -1.52796
upperneck 34.4406 2.94271 1.50772
head 15.0377 0.977479 1.35132
rclavicle 1.43125e-014 -3.18055e-015
rhumerus -23.9407 -4.12122 -82.5354
rradius 31.1048
rwrist 20.6612
rhand -24.4328 -13.4749
rfingers 7.12502
rthumb 2.05938 -43.4447
lclavicle 1.43125e-014 -3.18055e-015
lhumerus -33.1611 -3.16422 86.4568
lradius 35.7851
lwrist 6.5266
lhand -22.1474 3.52203
lfingers 7.12502
lthumb 4.2664 33.4591
rfemur -25.0538 2.35568 26.995
rtibia 34.7535
rfoot -13.4982 -4.34316
rtoes -7.47179
lfemur -41.8227 6.98799 -17.9011
ltibia 60.4733
lfoot -3.01116 -5.85394
ltoes -18.6897
1358
root 7.24418 16.7522 -3.0064 4191.91 -93.8115 -4177.38
lowerback 0.760066 1.8988 4.25924
upperback 2.14667 2.49174 0.00997673
thorax 1.96381 1.30907 -2.34605
lowerneck -18.5155 2.58318 -1.49746
upperneck 34.4556 2.98943 1.44475
head 15.0552 0.992757 1.32938
rclavicle -2.38542e-014 1.31198e-014
rhumerus -23.3637 -3.15514 -82.6737
rradius 32.2392
rwrist 19.3663
rhand -24.6457 -13.3811
rfingers 7.12502
rthumb 1.85376 -43.3528
lclavicle -2.38542e-014 1.31198e-014
lhumerus -33.5219 -2.85924 86.4555
lradius 35.019
lwrist 6.26696
lhand -21.7519 3.66503
lfingers 7.12502
lthumb 4.64831 33.594
rfemur -24.0046 2.28017 27.3747
rtibia 34.2459
rfoot -13.8301 -4.12579
rtoes -7.51011
lfemur -42.9084 6.86154 -18.0032
ltibia 58.4736
lfoot -3.72812 -5.82571
ltoes -19.9074
1359
root 7.26141 16.7512 -3.0012 4195.26 -93.7884 -4180.6
lowerback 0.658599 2.00763 4.3724
upperback 2.11124 2.63333 -0.019466
thorax 2.00166 1.38254 -2.43395
lowerneck -18.5555 2.61526 -1.46294
upperneck 34.4628 3.05584 1.37277
head 15.0691 1.01556 1.30632
rclavicle -6.36111e-015 9.93923e-016
rhumerus -22.7847 -2.004 -82.7691
rradius 33.3637
rwrist 18.1873
rhand -24.8275 -13.3527
rfingers 7.12502
rthumb 1.67816 -43.3258
lclavicle -6.36111e-015 9.93923e-016
lhumerus -33.8744 -2.47976 86.4362
lradius 34.3157
lwrist 5.982
lhand -21.3901 3.98798
lfingers 7.12502
lthumb 4.99772 33.909
rfemur -22.9419 2.35598 27.5508
rtibia 33.5813
rfoot -14.1032 -4.01721
rtoes -8.09194
lfemur -43.823 6.69376 -18.2511
ltibia 56.1555
lfoot -4.24239 -5.62791
ltoes -19.1365
1360
root 7.27816 16.7461 -2.99558 4197.7 -93.6117 -4182.86
lowerback 0.574045 2.13384 4.3278
upperback 2.04937 2.80223 -0.110208
thorax 2.00044 1.46676 -2.49718
lowerneck -18.5861 2.6321 -1.3971
upperneck 34.4758 3.10156 1.2623
head 15.0858 1.02787 1.25795
rclavicle 2.22639e-014 -2.78299e-014
rhumerus -22.2299 -1.15427 -82.782
rradius 34.4258
rwrist 17.5185
rhand -24.9195 -13.1072
rfingers 7.12502
rthumb 1.58928 -43.081
lclavicle 2.22639e-014 -2.78299e-014
lhumerus -34.2561 -2.09295 86.3811
lradius 33.6271
lwrist 5.75632
lhand -21.0476 4.16952
lfingers 7.12502
lthumb 5.32842 34.0825
rfemur -21.8855 2.47661 27.5197
rtibia 32.8475
rfoot -14.289 -4.00531
rtoes -8.87541
lfemur -44.5575 6.5379 -18.7002
ltibia 53.5391
lfoot -4.67444 -5.244
ltoes -18.9836
1361
root 7.29387 16.761 -2.98938 4201.77 -93.6632 -4186.83
lowerback 0.557416 2.27276 4.59735
upperback 2.01613 2.98714 -0.171873
thorax 2.008 1.56414 -2.70723
lowerneck -18.5712 2.63146 -1.29504
upperneck 34.4174 3.09998 1.17971
head 15.0595 1.03178 1.20469
rclavicle -9.54166e-015 -1.43125e-014
rhumerus -21.7196 -0.350968 -82.7731
rradius 35.5908
rwrist 16.56
rhand -24.9433 -12.9903
rfingers 7.12502
rthumb 1.56633 -42.9643
lclavicle -9.54166e-015 -1.43125e-014
lhumerus -34.5323 -1.81108 86.3
lradius 32.8841
lwrist 5.50992
lhand -20.7103 4.3986
lfingers 7.12502
lthumb 5.65403 34.3032
rfemur -20.6687 2.56794 27.7445
rtibia 31.9823
rfoot -14.44 -3.92211
rtoes -9.56895
lfemur -45.219 6.38138 -18.8323
ltibia 50.7012
lfoot -5.13774 -4.48684
ltoes -19.3613
1362
root 7.31019 16.7601 -2.97989 4205.82 -93.6355 -4190.71
lowerback 0.507278 2.37488 4.69701
upperback 1.93825 3.1235 -0.196881
thorax 1.97417 1.63253 -2.7854
lowerneck -18.5797 2.67638 -1.23775
upperneck 34.4155 3.18895 1.07082
head 15.0632 1.06161 1.1655
rclavicle -4.45278e-014 -9.14409e-015
rhumerus -21.1928 0.541639 -82.6809
rradius 36.5974
rwrist 16.0227
rhand -25.1622 -12.6387
rfingers 7.12502
rthumb 1.3549 -42.6141
lclavicle -4.45278e-014 -9.14409e-015
lhumerus -34.9076 -1.30593 86.2113
lradius 32.1444
lwrist 5.07974
lhand -20.5954 4.3935
lfingers 7.12502
lthumb 5.76496 34.2951
rfemur -19.512 2.71185 27.8598
rtibia 31.0349
rfoot -14.487 -3.84986
rtoes -10.151
lfemur -45.7283 6.25897 -19.0668
ltibia 47.637
lfoot -5.48388 -3.82706
ltoes -19.0166
1363
root 7.32484 16.7618 -2.97108 4208.98 -93.5639 -4193.8
lowerback 0.556725 2.49141 4.73035
upperback 1.90494 3.28342 -0.25652
thorax 1.93114 1.71225 -2.86502
lowerneck -18.6022 2.6791 -1.22141
upperneck 34.3915 3.20729 1.02973
head 15.0583 1.06724 1.14918
rclavicle -1.11319e-014 4.37326e-015
rhumerus -20.7336 1.43284 -82.6142
rradius 37.8665
rwrist 15.0227
rhand -24.9659 -13.0364
rfingers 7.12502
rthumb 1.54446 -43.0106
lclavicle -1.11319e-014 4.37326e-015
lhumerus -35.2294 -0.906349 86.114
lradius 31.4531
lwrist 4.65839
lhand -20.4853 4.48157
lfingers 7.12502
lthumb 5.8713 34.3802
rfemur -18.1291 2.89836 27.8879
rtibia 29.9075
rfoot -14.4725 -3.80375
rtoes -10.6001
lfemur -46.0024 6.08343 -19.3263
ltibia 44.3779
lfoot -5.78417 -3.04261
ltoes -17.6569
1364
root 7.33834 16.7636 -2.96076 4213.75 -93.5165 -4198.49
lowerback 0.580943 2.62087 4.78739
upperback 1.88484 3.458 -0.287292
thorax 1.91743 1.80007 -2.92633
lowerneck -18.5827 2.69946 -1.14089
upperneck 34.2924 3.26807 0.887118
head 15.012 1.08712 1.08534
rclavicle -7.95139e-015 -2.10712e-014
rhumerus -20.2242 2.17382 -82.4693
rradius 38.9984
rwrist 14.3309
rhand -24.9585 -13.0613
rfingers 7.12502
rthumb 1.55164 -43.0354
lclavicle -7.95139e-015 -2.10712e-014
lhumerus -35.5366 -0.458813 86.0298
lradius 30.7865
lwrist 4.24251
lhand -20.489 4.56154
lfingers 7.12502
lthumb 5.86768 34.4603
rfemur -16.7556 3.10718 27.9651
rtibia 28.7806
rfoot -14.4297 -3.75689
rtoes -11.0404
lfemur -46.1868 5.99756 -19.5187
ltibia 40.9507
lfoot -6.04914 -2.18636
ltoes -17.3737
1365
root 7.3481 16.766 -2.9471 4217.63 -93.4364 -4202.31
lowerback 0.567656 2.72584 4.81846
upperback 1.88503 3.59841 -0.360044
thorax 1.94428 1.87222 -3.01451
lowerneck -18.5859 2.70962 -1.1079
upperneck 34.2149 3.28728 0.85984
head 14.9777 1.09898 1.07105
rclavicle -3.02153e-014 -1.86858e-014
rhumerus -19.7483 2.82964 -82.3359
rradius 40.0453
rwrist 13.9059
rhand -25.2353 -12.8648
rfingers 7.12502
rthumb 1.28435 -42.8407
lclavicle -3.02153e-014 -1.86858e-014
lhumerus -35.8976 -0.0133509 85.8687
lradius 30.2389
lwrist 3.85918
lhand -20.494 4.73897
lfingers 7.12502
lthumb 5.86285 34.6379
rfemur -15.3293 3.17561 27.9551
rtibia 27.5674
rfoot -14.3055 -3.59463
rtoes -11.7532
lfemur -46.1709 5.76058 -19.7165
ltibia 37.3745
lfoot -6.35719 -1.15416
ltoes -18.172
